<svg xmlns="http://www.w3.org/2000/svg" xmlns:xlink="http://www.w3.org/1999/xlink" width="56" height="56" viewBox="0 0 56 56"><defs><clipPath id="a"><path d="M33,33H0V0H33V33Z" transform="translate(11 12)" fill="none"/></clipPath></defs><circle cx="28" cy="28" r="28" fill="#fdd800"/><g clip-path="url(#a)"><path d="M28.875,28.875h-22a2.753,2.753,0,0,1-2.75-2.75V12.375H8.25V8.25h4.125V4.125H22l2.516,2.75h4.359a2.753,2.753,0,0,1,2.75,2.749v16.5A2.753,2.753,0,0,1,28.875,28.875ZM17.875,11a6.875,6.875,0,1,0,6.875,6.875A6.883,6.883,0,0,0,17.875,11Zm0,11.275a4.4,4.4,0,1,1,4.4-4.4A4.405,4.405,0,0,1,17.875,22.275ZM6.875,11H4.125V6.875H0V4.125H4.125V0h2.75V4.125H11v2.75H6.875V11Z" transform="translate(11 13.375)" fill="#fff"/></g></svg>