<svg xmlns="http://www.w3.org/2000/svg" width="380.335" height="380.335" viewBox="0 0 380.335 380.335"><g transform="translate(-130 -137.975)"><circle cx="134.469" cy="134.469" r="134.469" transform="translate(130 328.143) rotate(-45)" fill="#fcd700"/><path d="M653.65,534.347H716.8V516.159a31.574,31.574,0,0,0-63.149,0v18.189Zm77.341.587a7.07,7.07,0,0,1,4.24,6.46V609.34a7.068,7.068,0,0,1-7.045,7.048H641.281a7.067,7.067,0,0,1-7.046-7.048V541.394a7.079,7.079,0,0,1,5.2-6.8c0-.082,0-.164,0-.247V516.159a45.792,45.792,0,0,1,91.584,0v18.189c0,.2-.008.393-.025.587Zm-46.258,22.641a9.754,9.754,0,0,0-5.387,17.886v12.313a5.4,5.4,0,0,0,5.387,5.386h0a5.4,5.4,0,0,0,5.386-5.386V575.461a9.754,9.754,0,0,0-5.386-17.886Z" transform="translate(-364.235 -215.536)" fill="#fff" fill-rule="evenodd"/></g></svg>