<svg id="Group_3" data-name="Group 3" xmlns="http://www.w3.org/2000/svg" xmlns:xlink="http://www.w3.org/1999/xlink" width="82" height="73" viewBox="0 0 82 73">
  <defs>
    <clipPath id="clip-path">
      <path id="Clip_2" data-name="Clip 2" d="M0,0H82V73H0Z" fill="none"/>
    </clipPath>
  </defs>
  <path id="Clip_2-2" data-name="Clip 2" d="M0,0H82V73H0Z" fill="none"/>
  <g id="Group_3-2" data-name="Group 3" clip-path="url(#clip-path)">
    <path id="Fill_1" data-name="Fill 1" d="M75.029,73H6.971a2.087,2.087,0,0,1,0-4.174h3.387V31.631l-6.93,6.058a2.058,2.058,0,0,1-2.921-.21,2.1,2.1,0,0,1,.208-2.944L39.643.51a2.058,2.058,0,0,1,2.713,0L56.147,12.563V8.407a2.086,2.086,0,0,1,.367-4.137H71.275a2.086,2.086,0,0,1,.367,4.137v17.7l9.644,8.429a2.1,2.1,0,0,1,.208,2.944,2.058,2.058,0,0,1-2.921.21l-6.931-6.058V68.826h3.388a2.087,2.087,0,0,1,0,4.174ZM41,4.85,14.5,28.012V68.755h53V28.012ZM60.287,8.444v7.739l7.212,6.3,0-14.042ZM40.2,61.973a2.081,2.081,0,0,1-2.071-2.087V56.531A11.254,11.254,0,0,1,30.6,51.874a2.1,2.1,0,0,1,.555-2.9,2.044,2.044,0,0,1,1.157-.359,2.066,2.066,0,0,1,1.717.918,7.489,7.489,0,0,0,6.266,2.994,8.89,8.89,0,0,0,1.146-.074c1.868-.248,3.355-1.092,3.7-2.1a2.5,2.5,0,0,0-1.509-3.334c-1.474-.568-6.346-2.457-7.176-2.9-2.184-1.169-6.248-3.345-5.278-8.339.527-2.72,3.255-4.788,6.95-5.268V27.864a2.071,2.071,0,1,1,4.142,0V30.67A11.147,11.147,0,0,1,48.9,34.885a2.1,2.1,0,0,1-.56,2.9,2.061,2.061,0,0,1-2.864-.547,7.113,7.113,0,0,0-5.686-2.656c-2.836,0-4.388,1.194-4.545,2-.268,1.38.111,2.22,3.156,3.85.489.253,3.873,1.6,6.728,2.695a6.7,6.7,0,0,1,3.928,8.594c-.857,2.5-3.393,4.3-6.785,4.828v3.338A2.081,2.081,0,0,1,40.2,61.973Z"/>
  </g>
</svg>
