<svg xmlns="http://www.w3.org/2000/svg" xmlns:xlink="http://www.w3.org/1999/xlink" width="121" height="121" viewBox="0 0 121 121"><defs><filter id="a" x="0" y="0" width="121" height="121" filterUnits="userSpaceOnUse"><feOffset dy="4" input="SourceAlpha"/><feGaussianBlur stdDeviation="15" result="b"/><feFlood flood-opacity="0.6"/><feComposite operator="in" in2="b"/><feComposite in="SourceGraphic"/></filter><clipPath id="c"><path d="M33,33H0V0H33V33Z" transform="translate(11 12)" fill="none"/></clipPath></defs><g transform="translate(25 20)"><g transform="matrix(1, 0, 0, 1, -25, -20)" filter="url(#a)"><circle cx="15.5" cy="15.5" r="15.5" transform="translate(45 41)" fill="#0ba2ff"/></g><circle cx="28" cy="28" r="28" fill="#fdd800"/><path d="M33,33H0V0H33V33Z" transform="translate(11 12)" fill="none"/><g clip-path="url(#c)"><path d="M28.875,28.875h-22a2.753,2.753,0,0,1-2.75-2.75V12.375H8.25V8.25h4.125V4.125H22l2.516,2.75h4.359a2.753,2.753,0,0,1,2.75,2.749v16.5A2.753,2.753,0,0,1,28.875,28.875ZM17.875,11a6.875,6.875,0,1,0,6.875,6.875A6.883,6.883,0,0,0,17.875,11Zm0,11.275a4.4,4.4,0,1,1,4.4-4.4A4.405,4.405,0,0,1,17.875,22.275ZM6.875,11H4.125V6.875H0V4.125H4.125V0h2.75V4.125H11v2.75H6.875V11Z" transform="translate(11 13.375)" fill="#fff"/></g></g></svg>