<svg xmlns="http://www.w3.org/2000/svg" xmlns:xlink="http://www.w3.org/1999/xlink" width="118" height="265.745" viewBox="0 0 118 265.745"><defs><clipPath id="a"><path d="M0,0H42.893V111.527H0Z" transform="translate(0 0.256)" fill="none"/></clipPath><clipPath id="b"><path d="M0,265H118V0H0Z" transform="translate(0 1)" fill="none"/></clipPath></defs><g transform="translate(0 -0.256)"><path d="M18.74,20.512V43.075A22.484,22.484,0,0,1,0,65.351V86c21.807-1.83,39-20.381,39-42.925V0A20.387,20.387,0,0,0,18.74,20.512" transform="translate(72 26)" fill="#fdd800"/><path d="M0,0H42.893V111.527H0Z" transform="translate(0 0.256)" fill="none"/><g clip-path="url(#a)"><path d="M20.425,68.722V46.3H42.893V25.917H20.425V20.384A20.4,20.4,0,0,0,0,0V68.722a42.9,42.9,0,0,0,42.893,42.805V91.144A22.445,22.445,0,0,1,20.425,68.722" transform="translate(0 0.256)" fill="#fdd800"/></g><path d="M9,18,0,9,9,0l9,9Z" transform="translate(74 5)" fill="#fdd800"/><path d="M9,18,0,9,9,0l9,9Z" transform="translate(93 5)" fill="#fdd800"/><path d="M1.872,22H32.111a15.8,15.8,0,0,0,2.831-.35c1.543-.335.944-21.65.944-21.65S25.072,2.039.539,1.08C.539,17.512,0,21.072,0,21.072s.015.715,1.872.928" transform="translate(40 91)" fill="#fdd800"/><path d="M14,59H8.861V42.143H5.138V59H0V6.67C0,4.187.658,2.449,2.01,1.356A7.607,7.607,0,0,1,6.925,0a7.793,7.793,0,0,1,4.906,1.466A6.274,6.274,0,0,1,14,6.67V59ZM7,3.225A1.812,1.812,0,0,0,5.138,5.2V38.625H8.861V5.2A1.812,1.812,0,0,0,7,3.225Z" transform="translate(4 206)" fill="#fdd800"/><path d="M0,59V0H4.83V55.542H7V59Z" transform="translate(22 206)" fill="#fdd800"/><path d="M6.907,3.6V59H2.093V3.6H0V0H9V3.6Z" transform="translate(38 206)" fill="#fdd800"/><path d="M6.926,60C3.053,60,0,58.589,0,53.169V0H5.138V54.728a1.819,1.819,0,0,0,1.787,2.005,1.918,1.918,0,0,0,1.936-2.005V0H14V53.169C14,58.367,10.574,60,6.926,60" transform="translate(50 206)" fill="#fdd800"/><path d="M8.862,59V42.08H5.138V59H0V0H5.138V38.549H8.862V0H14V59Z" transform="translate(68 206)" fill="#fdd800"/><path d="M6.926,60A7.51,7.51,0,0,1,2.01,58.622C.658,57.509,0,55.733,0,53.194V6.807c0-2.54.658-4.315,2.01-5.429A7.51,7.51,0,0,1,6.926,0a7.742,7.742,0,0,1,4.906,1.48A6.361,6.361,0,0,1,14,6.733V53.194a6.473,6.473,0,0,1-2.169,5.345A7.75,7.75,0,0,1,6.926,60ZM7,3.255a1.823,1.823,0,0,0-1.862,2V54.748a1.818,1.818,0,0,0,1.787,2,1.916,1.916,0,0,0,1.936-2V5.253A1.823,1.823,0,0,0,7,3.255Z" transform="translate(86 206)" fill="#fdd800"/><path d="M6.926,60A7.51,7.51,0,0,1,2.01,58.622C.658,57.509,0,55.733,0,53.194V6.807c0-2.54.658-4.315,2.01-5.429A7.51,7.51,0,0,1,6.926,0a7.742,7.742,0,0,1,4.906,1.48A6.361,6.361,0,0,1,14,6.733V53.194a6.473,6.473,0,0,1-2.169,5.345A7.75,7.75,0,0,1,6.926,60ZM7,3.255a1.823,1.823,0,0,0-1.862,2V54.748a1.818,1.818,0,0,0,1.787,2,1.916,1.916,0,0,0,1.936-2V5.253A1.823,1.823,0,0,0,7,3.255Z" transform="translate(103 206)" fill="#fdd800"/><path d="M.005,54v0c5.429-2.946,8.3-7.57,8.3-13.372v-4.6H0V14.545c0-2.919.15-6.261,1.94-9C3.888,2.57,7.506.755,13,0V37.533a32.574,32.574,0,0,1-.321,4.995,14.978,14.978,0,0,1-1.618,4.994,11.249,11.249,0,0,1-3.9,4.117A17.645,17.645,0,0,1,.005,54ZM8.3,3.26A14.26,14.26,0,0,0,4.7,13.208V31.1H8.3Z" transform="translate(3 142)" fill="#fdd800"/><path d="M0,265H118V0H0Z" transform="translate(0 1)" fill="none"/><g clip-path="url(#b)"><path d="M0,5H9V0H0Z" transform="translate(16 173)" fill="#fdd800"/><path d="M0,5H9V0H0Z" transform="translate(25 173)" fill="#fdd800"/><path d="M0,5H9V0H0Z" transform="translate(34 173)" fill="#fdd800"/><path d="M0,41.011H12.356V13.529A14.653,14.653,0,0,0,4.146,0C16.088,1.606,17,8.625,17,14.882V46H0Z" transform="translate(42 132)" fill="#fdd800"/><path d="M0,5H9V0H0Z" transform="translate(59 173)" fill="#fdd800"/><path d="M0,5H9V0H0Z" transform="translate(68 173)" fill="#fdd800"/><path d="M11.36,54H0V49.068H6.96V20.982l4.4-3.01ZM9.12,14.545a3.012,3.012,0,0,1,0-6.018,2.8,2.8,0,0,1,2.04.877,3.126,3.126,0,0,1,0,4.263A2.8,2.8,0,0,1,9.12,14.545Zm0-8.443a2.986,2.986,0,0,1-2.88-3.01A3.07,3.07,0,0,1,9.12,0a2.758,2.758,0,0,1,2.04.92A3.193,3.193,0,0,1,12,3.092a3.063,3.063,0,0,1-.84,2.132A2.8,2.8,0,0,1,9.12,6.1Z" transform="translate(76 124)" fill="#fdd800"/><path d="M0,5H9V0H0Z" transform="translate(88 173)" fill="#fdd800"/><path d="M0,49.068H7.352V3.093L12,0V54H0Z" transform="translate(96 124)" fill="#fdd800"/><path d="M5,54H0V2.926L5,0Z" transform="translate(113 124)" fill="#fdd800"/></g></g></svg>